<?xml version="1.0" standalone="no"?>
<!DOCTYPE svg PUBLIC "-//W3C//DTD SVG 20010904//EN"
 "http://www.w3.org/TR/2001/REC-SVG-20010904/DTD/svg10.dtd">
<svg version="1.0" xmlns="http://www.w3.org/2000/svg"
 width="436.000000pt" height="553.000000pt" viewBox="0 0 436.000000 553.000000"
 preserveAspectRatio="xMidYMid meet">

<g transform="translate(0.000000,553.000000) scale(0.100000,-0.100000)"
fill="#000000" stroke="none">
<path d="M2970 5211 c-99 -22 -178 -84 -222 -176 l-28 -60 0 -1077 c0 -592 4
-1079 8 -1082 5 -3 143 -6 308 -7 l299 -1 0 1083 0 1084 -26 56 c-15 31 -46
75 -70 97 -66 64 -186 101 -269 83z"/>
<path d="M2261 3590 c-55 -12 -127 -58 -166 -107 -61 -77 -64 -103 -65 -470 0
-185 4 -333 9 -333 5 0 14 7 22 16 21 25 95 74 141 91 32 13 91 18 238 22
l195 6 0 265 c0 230 -2 272 -18 317 -49 139 -205 224 -356 193z"/>
<path d="M1515 3445 c-74 -30 -136 -94 -164 -171 -20 -52 -21 -75 -21 -489 0
-420 1 -436 22 -492 41 -110 160 -193 277 -193 145 0 270 104 300 248 17 81
15 823 -3 887 -18 68 -38 104 -83 147 -90 87 -212 110 -328 63z"/>
<path d="M803 3315 c-69 -35 -135 -109 -156 -175 -15 -45 -17 -102 -17 -416 0
-415 3 -431 83 -515 64 -67 124 -93 218 -93 95 0 168 33 228 100 74 84 76 101
76 514 0 423 -2 435 -84 519 -69 70 -100 84 -206 89 -82 3 -95 1 -142 -23z"/>
<path d="M2292 2700 c-103 -37 -176 -102 -222 -195 -22 -43 -25 -64 -25 -155
0 -91 3 -112 25 -155 51 -105 145 -179 268 -210 l57 -15 -70 4 c-111 7 -178
38 -259 118 l-68 68 -58 -60 c-39 -41 -80 -70 -126 -93 -63 -29 -78 -32 -164
-32 -86 0 -101 3 -160 31 -65 32 -128 83 -167 139 l-21 30 -56 -62 c-31 -33
-76 -73 -100 -87 -107 -62 -254 -71 -363 -22 -30 15 -58 26 -60 26 -3 0 -3
-186 0 -412 5 -456 15 -552 77 -766 83 -284 248 -499 454 -592 129 -59 147
-60 923 -60 679 0 711 1 781 20 93 26 169 69 245 139 167 155 267 378 320 711
20 127 22 170 22 745 l0 610 -32 68 c-42 88 -121 167 -200 199 -58 23 -62 23
-513 25 -427 3 -458 1 -508 -17z"/>
</g>
</svg>
